<?xml version="1.0" encoding="iso-8859-1"?>
<!-- Generator: Adobe Illustrator 19.0.0, SVG Export Plug-In . SVG Version: 6.00 Build 0)  -->
<svg version="1.1" id="Capa_1" xmlns="http://www.w3.org/2000/svg" xmlns:xlink="http://www.w3.org/1999/xlink" x="0px" y="0px"
	 viewBox="0 0 512.003 512.003" style="enable-background:new 0 0 512.003 512.003;" xml:space="preserve">
<path style="fill:#FFC261;" d="M419.636,145.605c-2.046,13.273-12.699,23.047-25.354,24.473c0.788,3.485,0.956,7.173,0.378,10.919
	c-2.45,15.893-17.237,26.778-33.027,24.311c-14.71-2.297-25.096-15.372-24.468-30c-5.326,2.868-11.586,4.089-18.017,3.096
	c-3.362-0.519-6.497-1.606-9.33-3.142c-0.053,0.555-0.117,1.111-0.202,1.669c-2.423,15.898-17.191,26.808-32.985,24.369
	c-9.37-1.447-16.995-7.267-21.143-15.08c0.499,10.765-4.98,21.392-15.002,26.919c-14.014,7.728-31.598,2.557-39.275-11.548
	c-4.836-8.886-4.583-19.195-0.234-27.542c-0.497-0.043-0.99-0.105-1.483-0.173c-6.598,2.726-13.892,2.852-20.461,0.564
	c0.604,9.405-3.328,18.928-11.335,25.069c-12.71,9.747-30.864,7.278-40.548-5.515c-0.701-0.927-1.316-1.891-1.891-2.869
	c-4.187-0.055-8.427-1.029-12.431-3.023c-9.022-4.494-14.683-13.089-15.869-22.438c-8.104,4.722-18.328,5.405-27.349,0.911
	c-14.321-7.133-20.186-24.601-13.099-39.016c5.919-12.039,19-18.133,31.494-15.662c0.29-3.562,1.232-7.13,2.903-10.527
	c7.087-14.415,24.442-20.317,38.764-13.185c7.054,3.514,12.051,9.537,14.465,16.466c7.124,0.502,14.032,3.636,19.167,9.201
	c1.235-7.32,5.207-14.032,11.276-18.556c-2.42-2.616-4.404-5.72-5.773-9.252c-5.808-14.983,1.551-31.868,16.437-37.715
	c8.645-3.395,17.923-2.313,25.325,2.119c0.085-0.182,0.163-0.365,0.251-0.546c5.919-12.039,19-18.133,31.494-15.662
	c0.29-3.562,1.232-7.13,2.903-10.527c7.087-14.415,24.442-20.318,38.764-13.185c14.321,7.133,20.186,24.601,13.099,39.016
	c-1.509,3.069-3.486,5.747-5.797,8.001c0.51,0.219,1.017,0.449,1.52,0.699c5.265,2.623,9.382,6.644,12.137,11.395
	c6.636-5.601,15.543-7.985,24.172-6.278c0.29-3.562,1.232-7.13,2.903-10.527c7.087-14.415,24.442-20.318,38.764-13.185
	c14.321,7.133,20.186,24.601,13.099,39.016c-1.509,3.069-3.486,5.747-5.797,8.001c0.51,0.218,1.017,0.449,1.52,0.699
	c9.851,4.907,15.701,14.704,16.086,25.034C411.363,114.961,422.076,129.781,419.636,145.605z"/>
<path style="fill:#FFDB8B;" d="M305.899,97.261c-0.507,1.031-1.072,2.013-1.678,2.954c-3.37-2.234-7.253-3.8-11.503-4.456
	c-11.052-1.707-21.596,3.129-27.765,11.63c1.218-5.459,0.908-11.325-1.265-16.929c-5.808-14.983-22.584-22.39-37.47-16.544
	c-0.523,0.205-1.033,0.428-1.537,0.659c-0.097-3.237-0.732-6.512-1.968-9.702c-2.435-6.282-6.802-11.225-12.146-14.425
	c0.085-0.182,0.163-0.365,0.251-0.546c5.919-12.039,19-18.133,31.494-15.662c0.29-3.562,1.232-7.13,2.903-10.527
	c7.087-14.415,24.442-20.318,38.764-13.185c14.322,7.133,20.186,24.601,13.099,39.016c-1.509,3.069-3.486,5.747-5.797,8.001
	c0.51,0.219,1.017,0.449,1.52,0.699C307.121,65.379,312.986,82.847,305.899,97.261z M259.732,120.128
	c0.123-0.806,0.285-1.595,0.47-2.374c-8.332-4.493-18.679-4.799-27.587,0.112c-3.304,1.821-6.107,4.202-8.372,6.954
	c-8.834-9.231-23.024-11.779-34.728-5.325c-14.014,7.727-19.151,25.426-11.474,39.531c4.836,8.886,13.604,14.221,22.934,15.025
	c-4.35,8.347-4.603,18.656,0.234,27.542c7.677,14.105,25.261,19.276,39.275,11.548c10.023-5.527,15.502-16.154,15.002-26.919
	c-1.982-3.734-3.168-7.923-3.373-12.307c-0.054-0.101-0.101-0.204-0.156-0.305c-0.27-0.495-0.554-0.976-0.848-1.449
	c0.329-0.053,0.657-0.116,0.984-0.181c0.025-1.282,0.126-2.576,0.324-3.878c1.526-10.014,7.953-18.046,16.448-22.012
	C261.945,139.743,258.205,130.142,259.732,120.128z"/>
<path style="fill:#F3B05F;" d="M199.493,173.877c-6.598,2.726-13.892,2.853-20.461,0.564c0.604,9.405-3.328,18.928-11.335,25.069
	c-12.71,9.747-30.864,7.278-40.548-5.515c-8.088-10.685-7.704-25.188,0.045-35.358c-3.042-1.843-5.799-4.277-8.082-7.293
	c-9.684-12.792-7.231-31.065,5.48-40.812c11.946-9.161,28.699-7.529,38.71,3.321c-0.847,5.023-0.418,10.329,1.556,15.421
	c2.064,5.324,5.517,9.685,9.773,12.841c-0.572,5.66,0.489,11.545,3.41,16.912C182.621,167.439,190.725,172.662,199.493,173.877z
	 M379.597,87.366c-0.503-0.25-1.01-0.48-1.52-0.699c2.311-2.254,4.288-4.932,5.797-8.001c7.087-14.415,1.222-31.883-13.099-39.016
	c-14.321-7.133-31.676-1.23-38.763,13.185c-1.671,3.398-2.613,6.965-2.903,10.527c-10.265-2.03-20.918,1.73-27.678,9.811
	c2.521,2.424,4.195,6.644,4.195,11.454c0,7.525-4.085,13.625-9.125,13.625c-2.038,0-3.913-1.01-5.432-2.696
	c-15.161-1.465-29,9.229-31.338,24.572c-1.526,10.015,2.214,19.615,9.136,25.962c-8.495,3.966-14.922,11.998-16.448,22.012
	c-2.423,15.897,8.417,30.762,24.211,33.2s30.562-8.471,32.985-24.369c0.085-0.558,0.15-1.114,0.202-1.669
	c2.833,1.536,5.968,2.622,9.33,3.141c6.431,0.993,12.69-0.228,18.017-3.096c0.046-1.074,0.146-2.155,0.314-3.242
	c0.522-3.383,1.607-6.537,3.137-9.386c-0.551-0.054-1.104-0.12-1.658-0.207c-15.79-2.466-26.604-17.349-24.154-33.242
	c0.441-2.858,1.286-5.55,2.458-8.036c-0.062,0.014-0.125,0.024-0.187,0.039c-0.036-0.321-0.101-0.636-0.148-0.954
	c0.236,0.056,0.473,0.103,0.709,0.154c5.53-10.885,17.536-17.492,30.194-15.515c9.947,1.553,17.915,8.037,21.841,16.593
	c6.317-6.957,15.863-10.705,25.81-9.151c0.068,0.011,0.134,0.026,0.202,0.037C395.298,102.071,389.449,92.273,379.597,87.366z"/>
<path style="fill:#F2CF90;" d="M416.125,179.316v14.561v87.363l-46.57,215.617c-0.964,4.462-4.887,7.645-9.423,7.645H144.214
	c-4.536,0-8.459-3.183-9.423-7.645L88.221,281.24v-87.363v-14.561c0-13.246,10.544-24.013,23.644-24.263
	c13.515-0.258,24.577,11.206,24.577,24.813v3.089c0,6.032,4.858,10.922,10.85,10.922l0,0c5.992,0,10.85-4.89,10.85-10.922v-3.639
	c0-13.246,10.544-24.013,23.644-24.263c13.515-0.258,24.577,11.206,24.577,24.813v3.089c0,6.032,4.858,10.922,10.85,10.922l0,0
	c5.992,0,10.85-4.89,10.85-10.922v-3.639c0-13.246,10.544-24.013,23.644-24.263c13.515-0.258,24.577,11.206,24.577,24.813v3.089
	c0,6.032,4.858,10.922,10.85,10.922l0,0c5.992,0,10.85-4.89,10.85-10.922v-3.639c0-13.246,10.544-24.013,23.644-24.263
	c13.515-0.258,24.577,11.206,24.577,24.813v3.089c0,6.032,4.858,10.922,10.85,10.922l0,0c5.992,0,10.85-4.89,10.85-10.922v-3.089
	c0-13.607,11.062-25.071,24.577-24.813C405.581,155.303,416.125,166.071,416.125,179.316z"/>
<path style="fill:#E3B27C;" d="M134.791,496.857L88.221,281.24h327.903l-46.57,215.617c-0.964,4.462-4.887,7.645-9.423,7.645
	H144.214C139.678,504.502,135.755,501.319,134.791,496.857z"/>
<path style="fill:#EE5B55;" d="M149.944,310.361l33.932,194.141h-39.662c-4.536,0-8.459-3.183-9.423-7.645L88.221,281.24v-87.363
	v-14.561c0-13.246,10.544-24.013,23.644-24.263c13.515-0.258,24.577,11.206,24.577,24.813v3.089c0,6.032,4.858,10.922,10.85,10.922
	c0.917,0,1.802-0.127,2.652-0.342v87.705L149.944,310.361L149.944,310.361z M276.283,182.955v-3.089
	c0-13.607-11.062-25.071-24.577-24.813c-13.101,0.25-23.644,11.018-23.644,24.263v3.639c0,5.95-4.729,10.779-10.609,10.91v87.376
	v29.121l11.084,194.14h44.875l11.551-194.141V281.24v-87.583C280.011,192.646,276.283,188.239,276.283,182.955z M392.48,155.053
	c-13.515-0.258-24.577,11.206-24.577,24.813v3.089c0,6.032-4.858,10.922-10.85,10.922l0,0c-1.639,0-3.188-0.376-4.581-1.032v88.395
	v29.121l-35.075,194.141h42.735c4.536,0,8.459-3.183,9.423-7.645l46.57-215.617v-87.363v-14.561
	C416.124,166.071,405.581,155.303,392.48,155.053z"/>
<g>
	<path style="fill:#DC5B4D;" d="M173.785,504.502h-29.571c-4.536,0-8.459-3.183-9.423-7.645L88.221,281.24v-87.363v-14.561
		c0-13.246,10.544-24.013,23.644-24.263c5.692-0.109,10.944,1.868,15.123,5.202c-5.598,4.444-9.196,11.328-9.196,19.061v14.561
		v87.363l46.57,215.617C165.326,501.319,169.249,504.502,173.785,504.502z"/>
	<path style="fill:#DC5B4D;" d="M416.124,281.24l-46.57,215.617c-0.964,4.462-4.887,7.645-9.423,7.645h-42.735l35.076-194.141
		V281.24H416.124z M149.944,281.24H88.221l46.57,215.617c0.964,4.462,4.887,7.645,9.423,7.645h39.662l-33.932-194.141
		L149.944,281.24L149.944,281.24z M217.454,310.361l11.083,194.141h44.875l11.551-194.141V281.24h-67.51v29.121H217.454z"/>
</g>
<path style="fill:#C35243;" d="M173.142,504.502h-28.929c-4.536,0-8.459-3.183-9.423-7.645L88.22,281.24h28.929l46.57,215.617
	C164.683,501.319,168.606,504.502,173.142,504.502z"/>
<path style="fill:#FFC261;" d="M458.466,476.813c-0.786,16.064-14.362,28.444-30.321,27.653
	c-10.054-0.499-18.652-6.108-23.444-14.205c-5.56,7.584-14.664,12.315-24.718,11.816c-15.96-0.791-28.26-14.455-27.474-30.519
	c0.657-13.416,10.237-24.256,22.673-27.006c-1.146-3.383-1.695-7.033-1.51-10.819c0.786-16.064,14.362-28.444,30.321-27.653
	c15.96,0.791,28.26,14.455,27.474,30.519c-0.167,3.42-0.919,6.67-2.145,9.664c0.554-0.004,1.11,0.003,1.671,0.031
	C446.952,447.086,459.253,460.75,458.466,476.813z"/>
<path d="M157.323,309.071l28.933,165.016c0.715,4.08-2.012,7.967-6.092,8.682c-0.438,0.076-0.875,0.113-1.304,0.113
	c-3.574,0-6.74-2.563-7.379-6.206L142.548,311.66c-0.715-4.08,2.012-7.967,6.092-8.682
	C152.726,302.267,156.607,304.99,157.323,309.071z M217.009,302.879c-4.135,0.242-7.292,3.79-7.05,7.925l9.645,165.016
	c0.233,3.986,3.539,7.062,7.481,7.062c0.147,0,0.295-0.004,0.444-0.013c4.135-0.242,7.292-3.79,7.05-7.925l-9.645-165.016
	C224.692,305.793,221.149,302.633,217.009,302.879z M465.957,477.181c-0.478,9.762-4.707,18.754-11.909,25.322
	c-6.758,6.164-15.376,9.5-24.437,9.5c-0.612,0-1.224-0.015-1.839-0.045c-8.996-0.446-17.35-4.184-23.633-10.346
	c-6.856,5.513-15.542,8.399-24.531,7.958c-20.062-0.995-35.582-18.21-34.595-38.375c0.68-13.888,9.145-26.002,21.388-31.573
	c-0.251-2.064-0.326-4.152-0.224-6.253c0.478-9.761,4.707-18.754,11.909-25.322c1.149-1.047,2.351-2.014,3.6-2.895l26.936-124.706
	V179.324c0-9.072-7.306-16.592-16.288-16.763c-4.294-0.062-8.439,1.599-11.637,4.735c-3.367,3.303-5.298,7.887-5.298,12.575v3.094
	c0,10.157-8.232,18.419-18.35,18.419s-18.35-8.262-18.35-18.419v-3.094c0-4.688-1.931-9.272-5.298-12.575
	c-3.197-3.136-7.329-4.821-11.636-4.735c-8.982,0.171-16.289,7.691-16.289,16.763v3.641c0,10.157-8.232,18.419-18.35,18.419
	s-18.35-8.262-18.35-18.419v-3.094c0-4.688-1.931-9.272-5.298-12.575c-3.197-3.136-7.338-4.821-11.636-4.735
	c-8.982,0.171-16.288,7.691-16.288,16.763v3.641c0,10.157-8.232,18.419-18.351,18.419s-18.35-8.262-18.35-18.419v-3.094
	c0-4.688-1.931-9.272-5.298-12.575c-3.197-3.136-7.345-4.821-11.636-4.735c-8.982,0.171-16.289,7.691-16.289,16.763v3.641
	c0,10.157-8.232,18.419-18.35,18.419s-18.35-8.262-18.35-18.419v-3.094c0-4.688-1.931-9.272-5.298-12.575
	c-3.197-3.136-7.332-4.821-11.636-4.735c-8.982,0.171-16.289,7.691-16.289,16.763v94.422h46.724v-50.741c0-4.142,3.358-7.5,7.5-7.5
	s7.5,3.357,7.5,7.5v50.741h52.511v-50.741c0-4.142,3.358-7.5,7.5-7.5s7.5,3.357,7.5,7.5v50.741h52.511v-50.741
	c0-4.142,3.358-7.5,7.5-7.5s7.5,3.357,7.5,7.5v50.741h52.511v-50.741c0-4.142,3.358-7.5,7.5-7.5s7.5,3.357,7.5,7.5v50.741h31.078
	c4.142,0,7.5,3.357,7.5,7.5s-3.358,7.5-7.5,7.5H97.504l44.982,208.256h189.691c4.142,0,7.5,3.357,7.5,7.5s-3.358,7.5-7.5,7.5
	H140.468c-5.846,0-10.985-4.147-12.219-9.861L80.912,282.983c-0.13-0.549-0.2-1.122-0.202-1.711c0,0,0-0.001,0-0.002
	c0-0.008,0-0.016,0-0.024V179.324c0-0.76,0.027-1.513,0.081-2.26c-5.018-0.228-9.977-1.496-14.538-3.768
	c-17.981-8.955-25.377-30.952-16.486-49.036c6.131-12.47,18.695-20.189,32.133-20.393c0.587-1.984,1.343-3.921,2.266-5.797
	c4.323-8.795,11.8-15.36,21.052-18.486c9.212-3.113,19.079-2.438,27.786,1.897c7.091,3.532,12.821,9.271,16.357,16.327
	c3.55,0.72,7.01,1.976,10.253,3.76c1.345-2.561,2.996-4.974,4.939-7.178c-1.071-1.784-1.99-3.662-2.751-5.625
	c-7.288-18.798,1.993-40.064,20.688-47.406c8.136-3.194,16.95-3.361,25.118-0.52c6.765-9.044,17.381-14.456,28.603-14.628
	c0.586-1.984,1.343-3.92,2.265-5.797c4.324-8.795,11.801-15.36,21.053-18.486c9.211-3.113,19.078-2.439,27.786,1.897
	c17.982,8.956,25.378,30.954,16.486,49.038c-0.44,0.895-0.915,1.769-1.422,2.62c1.559,1.224,3.002,2.562,4.319,3.997
	c5.045-2.633,10.651-4.05,16.31-4.142c0.587-1.987,1.344-3.926,2.268-5.805c4.324-8.795,11.801-15.36,21.053-18.487
	c9.211-3.11,19.078-2.437,27.786,1.898c17.982,8.956,25.378,30.953,16.486,49.038c-0.441,0.896-0.916,1.771-1.424,2.624
	c6.872,5.397,11.626,13.132,13.329,21.776c16.583,5.515,27.301,22.46,24.539,40.371c-0.969,6.285-3.563,12.198-7.453,17.136
	c2.564,4.584,4.029,9.852,4.029,15.431v101.921c0,0.532-0.057,1.063-0.169,1.583l-25.045,115.949
	c1.957-0.223,3.947-0.285,5.953-0.186c20.063,0.996,35.582,18.211,34.595,38.376c-0.049,0.992-0.137,1.977-0.264,2.956
	C455.067,444.178,466.82,459.552,465.957,477.181z M120.018,104.59c3.564-2.733,7.495-4.715,11.591-5.954
	c-1.555-1.492-3.336-2.753-5.292-3.727c-5.107-2.543-10.895-2.938-16.296-1.114c-5.442,1.839-9.844,5.708-12.393,10.894
	c-1.21,2.46-1.936,5.094-2.159,7.827c-0.173,2.131-1.248,4.087-2.954,5.375c-1.706,1.29-3.879,1.789-5.977,1.374
	c-1.368-0.271-2.739-0.401-4.097-0.401c-8.013,0-15.552,4.57-19.212,12.014c-5.26,10.7-0.903,23.705,9.713,28.992
	c4.057,2.021,8.648,2.689,13.078,1.929c5.008-7.537,13.128-12.851,22.465-14.006C102.277,132.806,106.595,114.883,120.018,104.59z
	 M167.498,151.266c-0.328-1.918-0.499-3.842-0.519-5.757c-3.987-3.727-7.134-8.387-9.123-13.516
	c-1.923-4.961-2.698-10.152-2.422-15.24c-7.601-6.094-18.456-6.267-26.288-0.262c-9.429,7.231-11.252,20.838-4.064,30.334
	c0.942,1.211,7.323,8.108,8.525,9.213c0.212,0.195,0.411,0.4,0.596,0.613c6.185,6.101,9.73,14.558,9.73,23.219v3.094
	c0,1.886,1.502,3.42,3.35,3.42c1.847,0,3.35-1.534,3.35-3.42v-3.641C150.632,167.253,157.492,156.634,167.498,151.266z
	 M257.7,144.394c-4.152-6.464-6.193-14.114-5.753-21.897c-5.265-1.403-10.842-0.74-15.717,1.946
	c-2.383,1.314-4.47,3.048-6.203,5.153c-1.362,1.655-3.368,2.648-5.51,2.728c-2.142,0.065-4.216-0.76-5.699-2.31
	c-6.679-6.978-17.242-8.601-25.689-3.943c-7.751,4.273-12.009,12.889-11.016,21.487c0.04,0,0.08,0,0.119,0
	c8.148,0,15.878,3.192,21.829,9.03c6.224,6.106,9.794,14.592,9.794,23.283v3.094c0,1.886,1.502,3.42,3.35,3.42
	c1.847,0,3.35-1.534,3.35-3.42v-3.641c0-17.187,13.907-31.435,31.002-31.761c0.918-0.018,1.831,0.006,2.736,0.068
	C255.357,146.482,256.496,145.4,257.7,144.394z M256.689,93.181c-2.092-5.397-6.146-9.642-11.415-11.953
	c-5.219-2.288-11.016-2.403-16.321-0.32c-0.388,0.152-0.765,0.317-1.138,0.489c-2.285,1.054-4.948,0.891-7.089-0.434
	c-2.14-1.324-3.474-3.635-3.549-6.15c-0.075-2.475-0.567-4.904-1.465-7.22c-2.092-5.396-6.146-9.641-11.415-11.952
	c-2.739-1.201-5.638-1.804-8.54-1.804c-2.628,0-5.26,0.493-7.781,1.483c-11.03,4.332-16.497,16.903-12.185,28.023
	c0.99,2.555,2.432,4.866,4.286,6.87c1.444,1.561,2.158,3.663,1.962,5.781c-0.195,2.118-1.28,4.054-2.986,5.324
	c-7.765,5.789-10.729,16.172-7.21,25.252c0.019,0.048,0.038,0.096,0.057,0.144c3.245-5.653,8.002-10.478,13.987-13.779
	c12.136-6.691,26.836-5.782,37.968,1.796c1.604-1.28,3.318-2.424,5.133-3.425c8.318-4.586,17.835-5.715,26.817-3.31
	c0.644-1.28,1.362-2.521,2.152-3.715c0.008-0.198,0.025-0.397,0.049-0.598C258.441,100.155,257.985,96.524,256.689,93.181z
	 M270.675,87.759c0.515,1.327,0.95,2.681,1.307,4.055c6.714-3.404,14.293-4.627,21.875-3.457c2.343,0.362,4.609,0.942,6.778,1.721
	c2.669-9.789-1.826-20.448-11.184-25.109c-0.371-0.185-0.751-0.356-1.133-0.52c-2.302-0.988-3.959-3.06-4.417-5.522
	c-0.458-2.463,0.345-4.992,2.139-6.74c1.761-1.718,3.209-3.716,4.302-5.939c5.261-10.7,0.904-23.705-9.712-28.992
	c-5.108-2.545-10.894-2.939-16.296-1.115c-5.442,1.839-9.844,5.708-12.394,10.895c-1.21,2.459-1.936,5.093-2.158,7.826
	c-0.173,2.131-1.248,4.087-2.954,5.375c-1.705,1.289-3.88,1.789-5.977,1.374c-7.617-1.507-15.331,1.311-20.274,7.028
	c3.974,3.709,7.094,8.304,9.122,13.535c0.354,0.911,0.669,1.834,0.948,2.765c2.02-0.348,4.056-0.521,6.091-0.521
	c4.949,0,9.89,1.027,14.561,3.075C260.248,71.417,267.13,78.615,270.675,87.759z M310.645,149.734
	c-3.208-6.636-4.406-14.187-3.258-21.635c0.404-2.62,1.076-5.154,1.998-7.571c-1.687-9.012-8.788-15.953-17.817-17.347
	c-5.621-0.864-11.253,0.514-15.852,3.889c-4.655,3.417-7.7,8.459-8.574,14.198c-1.095,7.185,1.443,14.401,6.79,19.303
	c1.846,1.692,2.725,4.193,2.345,6.668c-0.381,2.476-1.971,4.597-4.24,5.656c-0.502,0.234-0.997,0.489-1.481,0.764
	c1.197,0.887,2.343,1.865,3.43,2.931c6.224,6.106,9.794,14.592,9.794,23.283v3.094c0,1.886,1.502,3.42,3.35,3.42
	c1.847,0,3.35-1.534,3.35-3.42v-3.641C290.478,165.967,298.877,154.386,310.645,149.734z M321.956,104.095
	c6.294-4.603,13.72-7.016,21.36-7.016c1.881,0,3.775,0.146,5.669,0.442c8.9,1.39,16.82,5.986,22.426,12.776
	c4.536-2.922,9.656-4.79,14.99-5.475c-1.997-4.6-5.551-8.441-10.15-10.732c-0.372-0.185-0.752-0.356-1.134-0.52
	c-2.302-0.988-3.959-3.059-4.417-5.522c-0.458-2.463,0.345-4.992,2.139-6.74c1.761-1.718,3.209-3.716,4.302-5.939
	c5.261-10.7,0.904-23.705-9.712-28.992c-5.108-2.545-10.896-2.939-16.296-1.115c-5.442,1.839-9.844,5.708-12.394,10.895
	c-1.21,2.459-1.936,5.093-2.158,7.826c-0.173,2.131-1.248,4.087-2.954,5.375c-1.706,1.29-3.879,1.789-5.977,1.374
	c-4.484-0.889-9.157-0.272-13.27,1.679c2.809,8.176,2.763,17.336-0.698,25.819c2.327,2.264,4.35,4.838,6.01,7.662
	C320.419,105.265,321.174,104.667,321.956,104.095z M409.176,152.705c1.552-2.47,2.586-5.248,3.046-8.233
	c1.817-11.789-6.212-22.864-17.899-24.689c-7.1-1.11-14.238,1.427-19.101,6.782c-1.693,1.865-4.208,2.753-6.7,2.37
	c-2.489-0.386-4.619-1.995-5.67-4.285c-3.027-6.597-9.076-11.2-16.182-12.309c-5.623-0.875-11.254,0.494-15.859,3.861
	c-4.66,3.408-7.714,8.445-8.598,14.182c-0.979,6.348,0.919,12.823,5.101,17.621c6.186,1.065,11.935,4.015,16.593,8.584
	c6.224,6.106,9.794,14.592,9.794,23.283v3.094c0,1.886,1.502,3.42,3.35,3.42s3.35-1.534,3.35-3.42v-3.094
	c0-8.69,3.569-17.176,9.794-23.283c6.096-5.979,14.062-9.176,22.428-9.025C398.705,147.68,404.383,149.558,409.176,152.705z
	 M430.626,453.787c-0.416-0.021-0.827-0.025-1.24-0.021c-2.523,0.02-4.866-1.214-6.275-3.293s-1.683-4.724-0.732-7.049
	c0.937-2.289,1.474-4.708,1.595-7.189c0.583-11.909-8.549-22.076-20.355-22.661c-5.705-0.29-11.186,1.69-15.426,5.556
	c-4.253,3.878-6.751,9.195-7.033,14.971c-0.135,2.744,0.243,5.451,1.122,8.048c0.684,2.018,0.476,4.232-0.57,6.089
	c-1.046,1.855-2.833,3.18-4.914,3.64c-9.417,2.082-16.326,10.327-16.802,20.049c-0.583,11.91,8.548,22.075,20.355,22.66
	c7.178,0.363,14.016-2.919,18.299-8.76c1.417-1.932,3.667-3.064,6.048-3.064c0.123,0,0.246,0.003,0.369,0.009
	c2.517,0.124,4.803,1.503,6.086,3.671c3.694,6.24,10.184,10.177,17.362,10.533c5.706,0.3,11.187-1.689,15.426-5.556
	c4.253-3.879,6.751-9.195,7.033-14.971C451.558,464.54,442.429,454.375,430.626,453.787z M353.765,302.979
	c-4.079-0.709-7.967,2.014-8.683,6.093l-28.933,165.016c-0.715,4.08,2.012,7.967,6.092,8.682c0.438,0.076,0.874,0.113,1.304,0.113
	c3.574,0,6.74-2.564,7.379-6.206l28.933-165.016C360.572,307.581,357.844,303.694,353.765,302.979z M277.471,309.929l-9.645,165.016
	c-0.242,4.135,2.915,7.682,7.05,7.925c0.149,0.009,0.297,0.013,0.444,0.013c3.942,0,7.248-3.076,7.481-7.062l9.645-165.016
	c0.242-4.135-2.915-7.682-7.05-7.925C281.261,302.64,277.712,305.793,277.471,309.929z"/>
<g>
</g>
<g>
</g>
<g>
</g>
<g>
</g>
<g>
</g>
<g>
</g>
<g>
</g>
<g>
</g>
<g>
</g>
<g>
</g>
<g>
</g>
<g>
</g>
<g>
</g>
<g>
</g>
<g>
</g>
</svg>
