<svg id="Flat" height="512" viewBox="0 0 512 512" width="512" xmlns="http://www.w3.org/2000/svg"><path d="m175.794 139.59a32 32 0 1 0 0-55.18 32 32 0 1 0 -52.949 27.59 32 32 0 1 0 52.949 27.59z" fill="#ffb632"/><path d="m228.41 87.794a32 32 0 1 0 55.18 0 32 32 0 1 0 -27.59-52.949 32 32 0 1 0 -27.59 52.949z" fill="#ffe76c"/><path d="m240.206 132.41a32 32 0 1 0 0 55.18 32 32 0 1 0 52.949-27.59 32 32 0 1 0 -52.949-27.59z" fill="#ffb632"/><path d="m179.59 168.206a32 32 0 1 0 -55.18 0 32 32 0 1 0 27.59 52.949 32 32 0 1 0 27.59-52.949z" fill="#ffe76c"/><path d="m371.59 88.206a32 32 0 1 0 -55.18 0 32 32 0 1 0 27.59 52.949 32 32 0 1 0 27.59-52.949z" fill="#ffb632"/><path d="m352.206 140.41a32 32 0 1 0 0 55.18 32 32 0 1 0 52.949-27.59 32 32 0 1 0 -52.949-27.59z" fill="#ffe76c"/><path d="m416 216v16l-32 256h-256l-32-256v-16a16 16 0 0 1 16-16h16a15.995 15.995 0 0 1 16 16 15.984 15.984 0 0 1 16-16h16a15.995 15.995 0 0 1 16 16 15.984 15.984 0 0 1 16-16h32a15.995 15.995 0 0 1 16 16 15.995 15.995 0 0 1 16-16h32a15.984 15.984 0 0 1 16 16 15.995 15.995 0 0 1 16-16h16a15.984 15.984 0 0 1 16 16 15.995 15.995 0 0 1 16-16h16a16 16 0 0 1 16 16z" fill="#eb423f"/><g fill="#c7312e"><path d="m168 488h-16.02l-15.97-271.53a8.018 8.018 0 0 1 5.99-8.22 7.634 7.634 0 0 1 1.53-.24 7.718 7.718 0 0 1 2.46.25 7.981 7.981 0 0 1 6 7.27l16 272c.01.16.01.31.01.47z"/><path d="m216 488h-16.02l-15.97-271.53a8.018 8.018 0 0 1 5.99-8.22 7.634 7.634 0 0 1 1.53-.24 7.718 7.718 0 0 1 2.46.25 7.981 7.981 0 0 1 6 7.27l16 272c.01.16.01.31.01.47z"/><path d="m327.99 216.47-15.97 271.53h-16.02c0-.16 0-.31.01-.47l16-272a7.961 7.961 0 0 1 6-7.27 7.443 7.443 0 0 1 2.46-.25 7.634 7.634 0 0 1 1.53.24 8.018 8.018 0 0 1 5.99 8.22z"/><path d="m375.99 216.47-15.97 271.53h-16.02c0-.16 0-.31.01-.47l16-272a7.961 7.961 0 0 1 6-7.27 7.443 7.443 0 0 1 2.46-.25 7.634 7.634 0 0 1 1.53.24 8.018 8.018 0 0 1 5.99 8.22z"/><path d="m264 216v272h-16v-272a8.006 8.006 0 0 1 6-7.75 8.125 8.125 0 0 1 4 0 8.006 8.006 0 0 1 6 7.75z"/></g><path d="m184 296h144v80h-144z" fill="#ffe76c"/><path d="m288 344h-64a8 8 0 0 1 0-16h64a8 8 0 0 1 0 16z" fill="#ffb632"/></svg>